<?xml version="1.0" standalone="no"?>
<!DOCTYPE svg PUBLIC "-//W3C//DTD SVG 20010904//EN"
 "http://www.w3.org/TR/2001/REC-SVG-20010904/DTD/svg10.dtd">
<svg version="1.0" xmlns="http://www.w3.org/2000/svg"
 width="769.000000pt" height="694.000000pt" viewBox="0 0 769.000000 694.000000"
 preserveAspectRatio="xMidYMid meet">

<g transform="translate(0.000000,694.000000) scale(0.100000,-0.100000)"
fill="#000000" stroke="none">
<path d="M2850 4706 c0 -1359 -4 -1527 -36 -1686 -50 -241 -190 -350 -450
-350 -152 0 -266 47 -353 146 -77 88 -120 220 -142 434 l-12 118 -31 -4 c-17
-2 -92 -11 -166 -19 -293 -32 -564 -66 -568 -70 -9 -9 18 -289 38 -385 105
-516 412 -811 940 -901 175 -31 554 -11 714 36 27 8 53 15 58 15 4 0 8 -277 8
-615 l0 -615 410 0 410 0 0 608 0 607 322 330 c178 182 325 331 328 332 3 2
69 -106 147 -240 78 -133 251 -429 385 -657 134 -228 318 -542 408 -697 l165
-283 523 0 c287 0 522 2 522 5 0 4 -69 110 -245 380 -29 44 -254 391 -501 770
-246 380 -496 764 -555 855 -224 344 -279 430 -279 439 0 8 190 207 520 546
97 99 317 326 490 505 172 179 354 367 404 418 l91 92 -546 0 -546 0 -264
-286 c-145 -157 -295 -321 -334 -364 -54 -60 -350 -382 -553 -600 -12 -14
-125 -136 -250 -272 l-227 -246 -6 1431 c-3 788 -7 1465 -8 1505 l-1 72 -405
0 -405 0 0 -1354z"/>
</g>
</svg>
